<?xml version="1.0" standalone="no"?>
<!DOCTYPE svg PUBLIC "-//W3C//DTD SVG 20010904//EN"
 "http://www.w3.org/TR/2001/REC-SVG-20010904/DTD/svg10.dtd">
<svg version="1.0" xmlns="http://www.w3.org/2000/svg"
 width="5417.000000pt" height="3335.000000pt" viewBox="0 0 5417.000000 3335.000000"
 preserveAspectRatio="xMidYMid meet">
<metadata>
Created by potrace 1.15, written by Peter Selinger 2001-2017
</metadata>
<g transform="translate(0.000000,3335.000000) scale(0.100000,-0.100000)"
fill="#000000" stroke="none">
<path d="M0 16680 l0 -16670 27085 0 27085 0 0 16670 0 16670 -27085 0 -27085
0 0 -16670z m24794 8635 c194 -51 452 -250 891 -691 l260 -261 75 29 c112 43
326 104 463 133 639 136 1311 101 1919 -98 l157 -52 178 184 c286 296 530 514
715 638 174 116 296 152 400 118 106 -34 158 -100 184 -231 99 -519 75 -1071
-72 -1646 l-35 -136 42 -69 c104 -169 202 -421 244 -628 71 -350 43 -743 -77
-1062 -11 -30 -18 -56 -16 -58 1 -2 55 -20 118 -40 296 -95 725 -309 833 -416
32 -31 37 -43 37 -80 0 -56 -16 -87 -60 -117 -52 -35 -107 -27 -195 30 -187
122 -429 238 -657 316 -214 74 -184 79 -262 -42 -36 -57 -66 -106 -66 -109 0
-3 44 -15 98 -27 302 -69 770 -226 824 -277 55 -52 37 -137 -36 -173 -23 -11
-54 -20 -68 -20 -14 0 -92 24 -174 54 -234 85 -560 179 -752 216 l-62 13 -113
-109 c-61 -60 -113 -112 -115 -115 -2 -4 22 -42 53 -84 260 -362 433 -788 501
-1230 26 -169 27 -571 1 -735 -49 -313 -147 -609 -299 -900 -430 -825 -1179
-1314 -2243 -1466 -172 -24 -614 -30 -805 -10 -475 50 -924 178 -1315 374
-161 80 -201 131 -193 247 7 117 90 195 208 195 46 0 70 -7 126 -37 321 -170
727 -293 1149 -348 733 -96 1568 106 2085 506 273 211 479 466 641 794 251
509 309 1017 178 1544 -43 174 -91 301 -180 481 -69 139 -223 389 -249 405 -5
3 -66 -26 -136 -66 -420 -240 -909 -386 -1439 -430 -176 -15 -597 -6 -755 16
-513 69 -964 225 -1360 468 l-104 64 -39 -46 c-140 -167 -304 -467 -377 -688
-65 -200 -85 -321 -85 -518 0 -141 4 -188 23 -275 151 -680 801 -1305 1479
-1425 125 -21 306 -28 417 -16 716 82 1256 544 1515 1295 23 66 53 135 67 153
69 90 209 105 299 31 83 -69 94 -156 39 -317 -128 -374 -319 -694 -568 -948
-49 -51 -86 -93 -81 -93 11 0 -130 -105 -253 -187 -536 -358 -1216 -458 -1794
-263 -322 110 -649 312 -887 551 -216 216 -355 402 -470 628 -150 294 -212
545 -213 856 -1 333 79 655 247 994 72 144 223 384 304 480 l42 49 -95 96 -94
97 -138 -31 c-279 -62 -535 -136 -777 -226 -132 -49 -154 -52 -213 -25 -38 17
-74 66 -74 101 0 34 35 80 73 99 160 77 622 217 944 286 21 5 19 10 -35 94
l-57 88 -128 -34 c-287 -75 -598 -209 -839 -362 -73 -46 -129 -54 -178 -25
-57 34 -79 124 -44 184 31 51 336 223 567 319 103 43 366 130 453 150 l50 12
-37 109 c-168 488 -140 1015 79 1484 22 46 56 111 76 146 l37 62 -31 107
c-157 558 -191 1209 -89 1711 28 136 80 204 181 235 57 18 92 18 162 0z m-630
-1226 c9 -151 38 -357 62 -441 5 -17 -38 -18 -801 -18 -896 0 -862 2 -890 -64
-13 -31 -15 -424 -15 -3031 0 -2700 2 -2999 16 -3026 31 -61 6 -59 893 -59
l809 0 62 -101 c196 -316 475 -618 787 -853 482 -362 1034 -576 1668 -648 141
-15 528 -16 670 0 711 80 1330 344 1847 790 244 211 492 506 642 765 l28 47
941 0 c877 0 944 1 977 18 71 35 65 -242 65 3072 0 3314 6 3037 -65 3072 -32
17 -94 18 -846 18 l-810 0 22 91 c24 95 68 334 79 427 l7 53 832 -3 c820 -4
832 -4 909 -26 212 -59 326 -176 390 -399 l22 -78 5 -3410 c5 -3123 7 -3416
22 -3476 64 -253 541 -1922 680 -2379 92 -302 104 -381 73 -500 -54 -207 -221
-375 -408 -409 -79 -14 -11140 -16 -11212 -2 -187 38 -311 134 -397 307 l-43
87 0 116 0 116 169 575 c138 473 528 1836 593 2073 16 58 18 304 23 3487 5
3192 7 3429 23 3488 63 232 244 395 472 425 17 2 404 5 861 6 l831 1 7 -111z
m-5317 -11523 l28 -24 5 -771 5 -771 380 777 c322 659 384 779 410 794 27 17
55 19 323 19 279 0 293 -1 312 -20 39 -39 46 -21 -235 -595 -75 -154 -237
-487 -361 -740 l-224 -460 145 -325 c81 -179 212 -471 292 -650 174 -389 261
-582 355 -790 105 -232 110 -247 97 -273 -7 -12 -17 -25 -23 -29 -6 -4 -149
-8 -317 -8 -288 0 -308 1 -331 19 -18 15 -107 215 -333 748 -170 400 -311 731
-315 736 -3 4 -45 -69 -93 -162 l-87 -168 0 -545 c0 -562 -2 -598 -40 -618
-11 -6 -135 -10 -298 -10 l-279 0 -24 26 -24 26 -3 1851 c-2 1019 0 1872 3
1896 4 26 16 53 30 67 l24 24 275 0 275 0 28 -24z m3677 8 c26 -25 27 -46 24
-326 -3 -241 -5 -269 -21 -285 -17 -17 -59 -18 -647 -21 l-630 -2 0 -485 0
-485 480 0 481 0 24 -25 25 -24 0 -276 0 -276 -25 -24 -24 -25 -481 0 -480 0
0 -490 0 -490 629 0 c683 0 652 2 666 -53 3 -12 5 -142 3 -288 -2 -207 -6
-270 -17 -282 -12 -16 -92 -17 -951 -17 l-937 0 -19 21 c-19 21 -19 67 -19
1926 l0 1905 24 19 c22 18 52 19 951 19 830 0 930 -2 944 -16z m2304 0 c22
-15 22 -17 22 -303 0 -232 -3 -291 -14 -307 -14 -18 -34 -19 -645 -22 l-631
-2 0 -485 0 -485 479 0 c457 0 480 -1 502 -19 l24 -19 0 -287 0 -287 -24 -19
c-22 -18 -45 -19 -502 -19 l-479 0 0 -490 0 -490 623 0 c547 0 625 -2 645 -16
22 -15 22 -17 22 -304 0 -249 -2 -291 -16 -304 -14 -14 -114 -16 -948 -16
-789 0 -935 2 -952 14 -19 14 -19 47 -22 1919 l-2 1904 21 27 20 26 928 0
c822 0 929 -2 949 -16z m2208 8 c30 -20 34 -55 34 -321 0 -258 -1 -272 -20
-291 -19 -19 -33 -20 -320 -20 l-300 0 -2 -1611 c-3 -1581 -3 -1611 -22 -1625
-29 -21 -593 -21 -622 0 -19 14 -19 44 -22 1625 l-2 1611 -298 0 c-163 0 -302
4 -308 8 -30 20 -34 55 -34 315 0 252 1 266 21 291 l20 26 932 0 c513 0 937
-4 943 -8z m1696 -19 c233 -65 366 -202 430 -444 l22 -84 4 -1295 c3 -1356 0
-1488 -39 -1616 -64 -209 -202 -341 -419 -401 -58 -16 -114 -18 -520 -18 -410
0 -461 2 -519 18 -173 49 -303 151 -371 291 -81 165 -75 38 -75 1631 l0 1420
23 80 c55 191 162 315 331 386 127 53 184 58 641 55 388 -2 420 -3 492 -23z
m1440 4 c11 -13 181 -473 392 -1062 282 -789 376 -1041 389 -1043 16 -3 17 60
17 1047 l0 1050 22 15 c19 14 66 16 309 16 l288 0 20 -26 21 -27 -2 -1904 c-3
-1872 -3 -1905 -22 -1919 -16 -11 -74 -14 -302 -14 l-283 0 -18 23 c-10 13
-187 495 -393 1070 -226 631 -380 1047 -387 1047 -10 0 -13 -217 -13 -1052 0
-964 -1 -1053 -17 -1070 -15 -17 -38 -18 -310 -18 -280 0 -294 1 -313 20 -20
20 -20 33 -20 1922 l0 1902 22 23 c21 23 22 23 300 23 278 0 280 0 300 -23z
m3739 4 c24 -19 24 -20 27 -274 4 -283 -3 -332 -44 -347 -15 -6 -273 -10 -640
-10 l-614 0 0 -485 0 -485 479 0 c457 0 480 -1 502 -19 l24 -19 0 -286 c0
-260 -2 -287 -18 -303 -16 -17 -53 -18 -502 -21 l-485 -3 0 -489 0 -490 624 0
c599 0 625 -1 647 -19 24 -19 24 -20 27 -273 2 -139 1 -267 -3 -285 -12 -68
60 -63 -970 -63 -1015 0 -957 -3 -970 53 -3 12 -4 871 -3 1908 3 1839 3 1887
22 1908 l19 21 927 0 c898 0 929 -1 951 -19z m2214 -6 l25 -24 0 -276 c0 -262
-1 -276 -20 -295 -19 -19 -33 -20 -320 -20 l-300 0 -2 -1611 c-3 -1581 -3
-1611 -22 -1625 -16 -11 -75 -14 -310 -14 -255 0 -292 2 -308 17 -17 15 -18
79 -18 1625 l0 1608 -304 0 -305 0 -21 27 c-20 26 -21 35 -18 301 l3 274 24
19 c22 18 53 19 948 19 l924 0 24 -25z"/>
<path d="M24797 24893 c-3 -5 -11 -57 -18 -118 -19 -155 -16 -515 5 -698 16
-141 63 -417 72 -426 2 -2 45 36 96 85 158 152 303 263 506 387 l123 75 -203
204 c-208 207 -357 342 -491 442 -76 58 -83 61 -90 49z"/>
<path d="M29589 24837 c-46 -35 -129 -104 -184 -152 -135 -120 -475 -457 -475
-472 0 -6 30 -28 68 -49 172 -97 370 -240 532 -387 83 -76 106 -92 111 -79 12
33 49 269 64 407 28 264 12 795 -24 795 -4 0 -46 -29 -92 -63z"/>
<path d="M27010 24269 c-149 -12 -351 -45 -509 -84 -408 -101 -808 -298 -1101
-543 -584 -488 -835 -1175 -669 -1831 27 -109 73 -245 90 -266 5 -7 34 -8 81
-4 110 11 468 10 593 -1 509 -48 1030 -216 1518 -489 60 -34 110 -61 113 -61
2 0 3 84 2 188 l-3 187 -227 5 c-223 5 -227 5 -252 29 -61 57 -51 168 18 211
33 20 47 20 612 20 549 0 581 -1 610 -19 32 -20 64 -74 64 -110 0 -35 -26 -86
-55 -109 -27 -21 -37 -22 -261 -22 l-234 0 0 -180 c0 -99 2 -180 3 -180 2 0
45 25 95 55 477 288 1011 466 1546 516 125 11 503 7 622 -7 l51 -6 31 84 c43
121 80 294 91 438 35 431 -111 874 -409 1243 -521 646 -1465 1012 -2420 936z
m-1473 -1481 c17 -13 111 -112 208 -221 161 -179 179 -196 194 -183 9 8 90
100 181 204 91 104 177 197 192 206 14 9 47 16 73 16 42 0 52 -5 86 -39 35
-34 39 -44 39 -88 0 -30 -7 -58 -17 -73 -48 -68 -479 -547 -506 -562 -84 -47
-109 -29 -382 273 -131 145 -246 278 -257 294 -36 60 -10 151 52 182 40 20
102 16 137 -9z m2581 0 c17 -13 111 -112 209 -222 l178 -198 57 63 c32 35 113
128 180 205 68 78 135 149 150 158 14 9 47 16 73 16 42 0 52 -5 86 -39 34 -34
39 -44 39 -85 0 -26 -4 -56 -10 -66 -22 -41 -484 -556 -513 -572 -17 -10 -41
-18 -53 -18 -60 0 -87 24 -326 289 -133 146 -249 280 -260 296 -34 56 -18 130
38 174 37 29 111 29 152 -1z"/>
<path d="M28970 21315 c-147 -18 -213 -31 -385 -73 l-150 -36 85 -7 c47 -4
159 -13 250 -19 154 -11 499 -49 617 -68 62 -10 55 -16 143 113 l61 90 -48 7
c-82 11 -463 6 -573 -7z"/>
<path d="M25043 21282 c-28 -4 -55 -11 -59 -15 -10 -10 17 -61 59 -111 l33
-39 175 22 c211 26 491 51 576 51 34 0 64 4 67 8 6 10 -185 47 -346 67 -135
16 -432 26 -505 17z"/>
<path d="M25995 20963 c-279 -14 -675 -48 -707 -61 -13 -6 -1 -21 61 -75 423
-372 986 -605 1610 -667 135 -13 469 -13 607 1 454 45 887 184 1249 402 183
110 440 313 413 327 -15 9 -344 45 -543 60 -77 6 -293 14 -480 16 l-340 6 -85
-47 c-129 -72 -260 -156 -367 -236 -80 -61 -103 -73 -142 -76 -43 -4 -54 0
-161 68 -148 93 -343 202 -446 250 l-82 38 -263 -1 c-145 -1 -291 -3 -324 -5z"/>
<path d="M26189 15236 c-95 -34 -156 -97 -184 -189 -17 -55 -55 -503 -56 -667
-2 -118 21 -181 87 -239 79 -69 24 -66 1199 -66 872 0 1067 2 1099 14 83 29
147 113 161 211 3 25 -5 196 -19 381 -26 358 -35 401 -90 474 -14 18 -52 46
-83 62 l-58 28 -1010 2 c-812 2 -1017 0 -1046 -11z"/>
<path d="M27984 11941 c-23 -10 -52 -34 -65 -52 l-24 -34 -3 -1190 c-2 -816 0
-1201 8 -1227 15 -52 67 -94 136 -108 90 -19 378 -9 427 14 44 22 70 56 86
111 14 50 15 2310 1 2369 -10 45 -34 81 -74 110 -25 19 -43 21 -239 24 -190 2
-216 0 -253 -17z"/>
</g>
</svg>
